<svg width="382" height="101" viewBox="0 0 382 101" fill="none" xmlns="http://www.w3.org/2000/svg">
<g clip-path="url(#clip0_24_7)">
<path d="M50.5 37.875V46.2917M50.5 63.125V63.1671" stroke="#FF440A" stroke-width="9" stroke-linecap="round" stroke-linejoin="round"/>
<path d="M21.0417 79.9583H79.9584C81.3316 79.9487 82.6816 79.6032 83.8906 78.952C85.0996 78.3008 86.1309 77.3637 86.8946 76.2223C87.6582 75.081 88.131 73.7702 88.2717 72.4041C88.4124 71.0381 88.2167 69.6584 87.7017 68.3854L57.8225 16.8333C57.0947 15.5178 56.0277 14.4212 54.7326 13.6577C53.4374 12.8941 51.9614 12.4914 50.4579 12.4914C48.9545 12.4914 47.4785 12.8941 46.1833 13.6577C44.8882 14.4212 43.8212 15.5178 43.0934 16.8333L13.2142 68.3854C12.7089 69.6293 12.5086 70.976 12.6299 72.3131C12.7511 73.6502 13.1905 74.9389 13.9113 76.0715C14.6321 77.2042 15.6134 78.148 16.7733 78.8242C17.9332 79.5003 19.238 79.8892 20.5788 79.9583" stroke="#FF440A" stroke-width="9" stroke-linecap="round" stroke-linejoin="round"/>
</g>
<path d="M104.36 68V33.44H118.64C118.976 33.44 119.408 33.456 119.936 33.488C120.464 33.504 120.952 33.552 121.4 33.632C123.4 33.936 125.048 34.6 126.344 35.624C127.656 36.648 128.624 37.944 129.248 39.512C129.888 41.064 130.208 42.792 130.208 44.696C130.208 46.584 129.888 48.312 129.248 49.88C128.608 51.432 127.632 52.72 126.32 53.744C125.024 54.768 123.384 55.432 121.4 55.736C120.952 55.8 120.456 55.848 119.912 55.88C119.384 55.912 118.96 55.928 118.64 55.928H110.144V68H104.36ZM110.144 50.528H118.4C118.72 50.528 119.08 50.512 119.48 50.48C119.88 50.448 120.248 50.384 120.584 50.288C121.544 50.048 122.296 49.624 122.84 49.016C123.4 48.408 123.792 47.72 124.016 46.952C124.256 46.184 124.376 45.432 124.376 44.696C124.376 43.96 124.256 43.208 124.016 42.44C123.792 41.656 123.4 40.96 122.84 40.352C122.296 39.744 121.544 39.32 120.584 39.08C120.248 38.984 119.88 38.928 119.48 38.912C119.08 38.88 118.72 38.864 118.4 38.864H110.144V50.528ZM135.016 68V33.44H149.296C149.632 33.44 150.064 33.456 150.592 33.488C151.12 33.504 151.608 33.552 152.056 33.632C154.056 33.936 155.704 34.6 157 35.624C158.312 36.648 159.28 37.944 159.904 39.512C160.544 41.064 160.864 42.792 160.864 44.696C160.864 47.512 160.152 49.936 158.728 51.968C157.304 53.984 155.12 55.232 152.176 55.712L149.704 55.928H140.8V68H135.016ZM154.864 68L148.048 53.936L153.928 52.64L161.416 68H154.864ZM140.8 50.528H149.056C149.376 50.528 149.736 50.512 150.136 50.48C150.536 50.448 150.904 50.384 151.24 50.288C152.2 50.048 152.952 49.624 153.496 49.016C154.056 48.408 154.448 47.72 154.672 46.952C154.912 46.184 155.032 45.432 155.032 44.696C155.032 43.96 154.912 43.208 154.672 42.44C154.448 41.656 154.056 40.96 153.496 40.352C152.952 39.744 152.2 39.32 151.24 39.08C150.904 38.984 150.536 38.928 150.136 38.912C149.736 38.88 149.376 38.864 149.056 38.864H140.8V50.528ZM181.32 68.72C177.864 68.72 174.904 67.968 172.44 66.464C169.976 64.944 168.08 62.832 166.752 60.128C165.44 57.424 164.784 54.288 164.784 50.72C164.784 47.152 165.44 44.016 166.752 41.312C168.08 38.608 169.976 36.504 172.44 35C174.904 33.48 177.864 32.72 181.32 32.72C184.776 32.72 187.736 33.48 190.2 35C192.68 36.504 194.576 38.608 195.888 41.312C197.216 44.016 197.88 47.152 197.88 50.72C197.88 54.288 197.216 57.424 195.888 60.128C194.576 62.832 192.68 64.944 190.2 66.464C187.736 67.968 184.776 68.72 181.32 68.72ZM181.32 63.272C183.64 63.288 185.568 62.776 187.104 61.736C188.656 60.696 189.816 59.232 190.584 57.344C191.368 55.456 191.76 53.248 191.76 50.72C191.76 48.192 191.368 46 190.584 44.144C189.816 42.272 188.656 40.816 187.104 39.776C185.568 38.736 183.64 38.2 181.32 38.168C179 38.152 177.072 38.664 175.536 39.704C174 40.744 172.84 42.208 172.056 44.096C171.288 45.984 170.904 48.192 170.904 50.72C170.904 53.248 171.288 55.448 172.056 57.32C172.824 59.176 173.976 60.624 175.512 61.664C177.064 62.704 179 63.24 181.32 63.272ZM210.023 68V38.864H198.839V33.44H226.991V38.864H215.807V68H210.023ZM245.445 68.72C241.989 68.72 239.029 67.968 236.565 66.464C234.101 64.944 232.205 62.832 230.877 60.128C229.565 57.424 228.909 54.288 228.909 50.72C228.909 47.152 229.565 44.016 230.877 41.312C232.205 38.608 234.101 36.504 236.565 35C239.029 33.48 241.989 32.72 245.445 32.72C248.901 32.72 251.861 33.48 254.325 35C256.805 36.504 258.701 38.608 260.013 41.312C261.341 44.016 262.005 47.152 262.005 50.72C262.005 54.288 261.341 57.424 260.013 60.128C258.701 62.832 256.805 64.944 254.325 66.464C251.861 67.968 248.901 68.72 245.445 68.72ZM245.445 63.272C247.765 63.288 249.693 62.776 251.229 61.736C252.781 60.696 253.941 59.232 254.709 57.344C255.493 55.456 255.885 53.248 255.885 50.72C255.885 48.192 255.493 46 254.709 44.144C253.941 42.272 252.781 40.816 251.229 39.776C249.693 38.736 247.765 38.2 245.445 38.168C243.125 38.152 241.197 38.664 239.661 39.704C238.125 40.744 236.965 42.208 236.181 44.096C235.413 45.984 235.029 48.192 235.029 50.72C235.029 53.248 235.413 55.448 236.181 57.32C236.949 59.176 238.101 60.624 239.637 61.664C241.189 62.704 243.125 63.24 245.445 63.272ZM274.148 68V38.864H262.964V33.44H291.116V38.864H279.932V68H274.148ZM304.807 68V53.84L293.047 33.44H299.791L307.735 47.216L315.655 33.44H322.399L310.663 53.84V68H304.807ZM325.751 68V33.44H340.031C340.367 33.44 340.799 33.456 341.327 33.488C341.855 33.504 342.343 33.552 342.791 33.632C344.791 33.936 346.439 34.6 347.735 35.624C349.047 36.648 350.015 37.944 350.639 39.512C351.279 41.064 351.599 42.792 351.599 44.696C351.599 46.584 351.279 48.312 350.639 49.88C349.999 51.432 349.023 52.72 347.711 53.744C346.415 54.768 344.775 55.432 342.791 55.736C342.343 55.8 341.847 55.848 341.303 55.88C340.775 55.912 340.351 55.928 340.031 55.928H331.535V68H325.751ZM331.535 50.528H339.791C340.111 50.528 340.471 50.512 340.871 50.48C341.271 50.448 341.639 50.384 341.975 50.288C342.935 50.048 343.687 49.624 344.231 49.016C344.791 48.408 345.183 47.72 345.407 46.952C345.647 46.184 345.767 45.432 345.767 44.696C345.767 43.96 345.647 43.208 345.407 42.44C345.183 41.656 344.791 40.96 344.231 40.352C343.687 39.744 342.935 39.32 341.975 39.08C341.639 38.984 341.271 38.928 340.871 38.912C340.471 38.88 340.111 38.864 339.791 38.864H331.535V50.528ZM356.407 68V33.44H378.727V38.864H362.191V47.384H375.847V52.808H362.191V62.576H378.727V68H356.407Z" fill="#FF8A00"/>
<defs>
<clipPath id="clip0_24_7">
<rect width="101" height="w101" fill="white"/>
</clipPath>
</defs>
</svg>
