<svg width="407" height="87" viewBox="0 0 407 87" fill="none" xmlns="http://www.w3.org/2000/svg">
<path d="M1.5925 68L17.4645 21.92H23.7045L39.5765 68H34.6805L19.6085 24.544H21.4645L6.4885 68H1.5925ZM8.6645 56.832V52.416H32.4725V56.832H8.6645ZM213.938 68.96C210.759 68.96 208.071 68.16 205.874 66.56C203.676 64.9387 202.012 62.752 200.882 60C199.751 57.2267 199.186 54.1227 199.186 50.688C199.186 47.1893 199.751 44.0747 200.882 41.344C202.034 38.592 203.719 36.4267 205.938 34.848C208.156 33.2693 210.887 32.48 214.13 32.48C217.287 32.48 219.996 33.28 222.258 34.88C224.519 36.48 226.247 38.656 227.442 41.408C228.658 44.16 229.266 47.2533 229.266 50.688C229.266 54.144 228.658 57.248 227.442 60C226.226 62.752 224.476 64.9387 222.194 66.56C219.911 68.16 217.159 68.96 213.938 68.96ZM198.386 83.36V33.44H202.61V59.456H203.122V83.36H198.386ZM213.458 64.576C215.868 64.576 217.874 63.968 219.474 62.752C221.074 61.536 222.268 59.8827 223.058 57.792C223.868 55.68 224.274 53.312 224.274 50.688C224.274 48.0853 223.879 45.7387 223.09 43.648C222.3 41.5573 221.095 39.904 219.474 38.688C217.874 37.472 215.836 36.864 213.362 36.864C210.951 36.864 208.946 37.4507 207.346 38.624C205.767 39.7973 204.583 41.4293 203.794 43.52C203.004 45.5893 202.61 47.9787 202.61 50.688C202.61 53.3547 203.004 55.744 203.794 57.856C204.583 59.9467 205.778 61.5893 207.378 62.784C208.978 63.9787 211.004 64.576 213.458 64.576ZM236.293 68V33.44H240.517V41.76L239.685 40.672C240.069 39.648 240.57 38.7093 241.189 37.856C241.807 36.9813 242.479 36.2667 243.205 35.712C244.101 34.9227 245.146 34.3253 246.341 33.92C247.535 33.4933 248.741 33.248 249.957 33.184C251.173 33.0987 252.282 33.184 253.285 33.44V37.856C252.026 37.536 250.65 37.4613 249.157 37.632C247.663 37.8027 246.287 38.4 245.029 39.424C243.877 40.32 243.013 41.3973 242.437 42.656C241.861 43.8933 241.477 45.216 241.285 46.624C241.093 48.0107 240.997 49.3867 240.997 50.752V68H236.293ZM273.162 68.96C269.727 68.96 266.794 68.1813 264.362 66.624C261.93 65.0667 260.063 62.912 258.762 60.16C257.461 57.408 256.81 54.2507 256.81 50.688C256.81 47.0613 257.471 43.8827 258.794 41.152C260.117 38.4213 261.994 36.2987 264.426 34.784C266.879 33.248 269.791 32.48 273.162 32.48C276.618 32.48 279.562 33.2587 281.994 34.816C284.447 36.352 286.314 38.496 287.594 41.248C288.895 43.9787 289.546 47.1253 289.546 50.688C289.546 54.3147 288.895 57.504 287.594 60.256C286.293 62.9867 284.415 65.12 281.962 66.656C279.509 68.192 276.575 68.96 273.162 68.96ZM273.162 64.448C277.002 64.448 279.861 63.1787 281.738 60.64C283.615 58.08 284.554 54.7627 284.554 50.688C284.554 46.5067 283.605 43.1787 281.706 40.704C279.829 38.2293 276.981 36.992 273.162 36.992C270.581 36.992 268.447 37.5787 266.762 38.752C265.098 39.904 263.85 41.5147 263.018 43.584C262.207 45.632 261.802 48 261.802 50.688C261.802 54.848 262.762 58.1867 264.682 60.704C266.602 63.2 269.429 64.448 273.162 64.448ZM291.485 83.36V78.816H293.437C294.994 78.816 296.232 78.4107 297.149 77.6C298.088 76.8107 298.557 75.4773 298.557 73.6V33.44H303.229V74.784C303.229 77.664 302.536 79.808 301.149 81.216C299.784 82.6453 297.682 83.36 294.845 83.36H291.485ZM298.557 26.88V21.6H303.229V26.88H298.557ZM327.292 68.96C323.921 68.96 320.998 68.2133 318.524 66.72C316.07 65.2267 314.161 63.1253 312.796 60.416C311.43 57.7067 310.748 54.528 310.748 50.88C310.748 47.104 311.42 43.84 312.764 41.088C314.108 38.336 315.996 36.2133 318.428 34.72C320.881 33.2267 323.772 32.48 327.1 32.48C330.513 32.48 333.425 33.2693 335.836 34.848C338.246 36.4053 340.07 38.6453 341.308 41.568C342.545 44.4907 343.11 47.9787 343.004 52.032H338.204V50.368C338.118 45.888 337.148 42.5067 335.292 40.224C333.457 37.9413 330.769 36.8 327.228 36.8C323.516 36.8 320.668 38.0053 318.684 40.416C316.721 42.8267 315.74 46.2613 315.74 50.72C315.74 55.072 316.721 58.4533 318.684 60.864C320.668 63.2533 323.473 64.448 327.1 64.448C329.574 64.448 331.729 63.8827 333.564 62.752C335.42 61.6 336.881 59.9467 337.948 57.792L342.332 59.488C340.966 62.496 338.95 64.832 336.284 66.496C333.638 68.1387 330.641 68.96 327.292 68.96ZM314.076 52.032V48.096H340.476V52.032H314.076ZM364.441 68.96C360.964 68.96 358.02 68.1813 355.609 66.624C353.198 65.0667 351.364 62.9227 350.105 60.192C348.868 57.44 348.228 54.2827 348.185 50.72C348.228 47.0933 348.889 43.9147 350.169 41.184C351.449 38.432 353.294 36.2987 355.705 34.784C358.116 33.248 361.038 32.48 364.473 32.48C367.972 32.48 371.012 33.3333 373.593 35.04C376.196 36.7467 377.977 39.0827 378.937 42.048L374.329 43.52C373.518 41.4507 372.228 39.8507 370.457 38.72C368.708 37.568 366.702 36.992 364.441 36.992C361.902 36.992 359.801 37.5787 358.137 38.752C356.473 39.904 355.236 41.5147 354.425 43.584C353.614 45.6533 353.198 48.032 353.177 50.72C353.22 54.8587 354.18 58.1867 356.057 60.704C357.934 63.2 360.729 64.448 364.441 64.448C366.788 64.448 368.782 63.9147 370.425 62.848C372.089 61.76 373.348 60.1813 374.201 58.112L378.937 59.52C377.657 62.592 375.78 64.9387 373.305 66.56C370.83 68.16 367.876 68.96 364.441 68.96ZM404.359 68C402.417 68.4053 400.497 68.5653 398.599 68.48C396.721 68.3947 395.036 67.9893 393.543 67.264C392.071 66.5387 390.951 65.408 390.183 63.872C389.564 62.592 389.223 61.3013 389.159 60C389.116 58.6773 389.095 57.1733 389.095 55.488V23.84H393.767V55.296C393.767 56.7467 393.777 57.9627 393.799 58.944C393.841 59.904 394.065 60.7573 394.471 61.504C395.239 62.9333 396.455 63.7867 398.119 64.064C399.804 64.3413 401.884 64.2773 404.359 63.872V68ZM381.703 37.472V33.44H404.359V37.472H381.703Z" fill="white"/>
<path d="M54.9675 68V66.944L73.2715 40.192H56.8235V33.44H85.2715V34.528L67.0315 61.248H84.5035V68H54.9675ZM116.197 68V51.36C116.197 50.272 116.122 49.0667 115.973 47.744C115.823 46.4213 115.471 45.152 114.917 43.936C114.383 42.6987 113.573 41.6853 112.485 40.896C111.418 40.1067 109.967 39.712 108.133 39.712C107.151 39.712 106.181 39.872 105.221 40.192C104.261 40.512 103.386 41.0667 102.597 41.856C101.829 42.624 101.21 43.6907 100.741 45.056C100.271 46.4 100.037 48.128 100.037 50.24L95.4605 48.288C95.4605 45.344 96.0258 42.6773 97.1565 40.288C98.3085 37.8987 99.9938 36 102.213 34.592C104.431 33.1627 107.162 32.448 110.405 32.448C112.965 32.448 115.077 32.8747 116.741 33.728C118.405 34.5813 119.727 35.6693 120.708 36.992C121.69 38.3147 122.415 39.7227 122.885 41.216C123.354 42.7093 123.653 44.128 123.781 45.472C123.93 46.7947 124.005 47.872 124.005 48.704V68H116.197ZM92.2285 68V33.44H99.1085V44.16H100.037V68H92.2285ZM146.801 68.96C143.238 68.96 140.198 68.1707 137.681 66.592C135.163 64.992 133.233 62.816 131.889 60.064C130.566 57.312 129.894 54.1973 129.873 50.72C129.894 47.1787 130.587 44.0427 131.953 41.312C133.339 38.56 135.302 36.4053 137.841 34.848C140.379 33.2693 143.398 32.48 146.897 32.48C150.822 32.48 154.139 33.472 156.849 35.456C159.579 37.4187 161.361 40.1067 162.193 43.52L154.513 45.6C153.915 43.744 152.923 42.304 151.537 41.28C150.15 40.2347 148.571 39.712 146.801 39.712C144.795 39.712 143.142 40.192 141.841 41.152C140.539 42.0907 139.579 43.392 138.961 45.056C138.342 46.72 138.033 48.608 138.033 50.72C138.033 54.0053 138.769 56.6613 140.241 58.688C141.713 60.7147 143.899 61.728 146.801 61.728C148.849 61.728 150.459 61.2587 151.633 60.32C152.827 59.3813 153.723 58.0267 154.321 56.256L162.193 58.016C161.126 61.536 159.259 64.2453 156.593 66.144C153.926 68.0213 150.662 68.96 146.801 68.96ZM168.308 28.192V21.12H176.02V28.192H168.308ZM168.308 68V33.44H176.02V68H168.308Z" fill="#4FC693"/>
</svg>
