<svg width="392" height="155" viewBox="0 0 392 155" fill="none" xmlns="http://www.w3.org/2000/svg">
<circle cx="50" cy="50" r="50" fill="#5598E6" fill-opacity="0.5"/>
<g clip-path="url(#clip0_3_51)">
<path d="M333.871 100.456C331.734 101.108 329.913 102.603 329.001 104.456C328.272 105.937 328.181 107.501 328.739 108.978C329.259 110.356 329.109 111.861 328.329 113.108C325.806 117.136 323.247 118.463 321.517 118.86C321.484 118.868 321.448 118.872 321.424 118.88C320.936 118.992 320.573 119.405 320.524 119.907C320.476 120.412 320.76 120.891 321.226 121.091C321.758 121.318 330.823 125.118 338.468 123.361C341.568 122.648 344.435 121.022 346.406 117.875C349.753 112.53 348.453 105.546 343.446 101.974C340.513 99.8828 337.37 99.3956 333.871 100.456Z" fill="#FFD9AD"/>
<path d="M374.636 52.6397L374.223 52.3813C371.242 50.5124 367.31 51.4053 365.27 54.4196L364.12 56.1437L368.447 58.8539C368.993 59.1967 369.158 59.9155 368.817 60.462C368.645 60.7351 368.38 60.9131 368.089 60.98C367.798 61.047 367.481 61.0025 367.209 60.8316L362.822 58.0846L361.525 60.0269L365.969 62.8097C366.514 63.1524 366.68 63.8724 366.338 64.4179C366.166 64.6909 365.901 64.8692 365.611 64.9359C365.32 65.0028 365.003 64.9583 364.73 64.7875L360.228 61.9678L336.403 97.6322C339.39 97.42 342.208 98.226 344.802 100.076C347.849 102.248 349.75 105.471 350.368 108.951L377.005 62.8454C379.08 59.2531 378.04 54.7706 374.636 52.6397Z" fill="#FFD9AD"/>
</g>
<path d="M38.1989 150.182V54.1818H51.4716V65.5H52.608C53.3958 64.0455 54.5322 62.3636 56.017 60.4545C57.5019 58.5455 59.5625 56.8788 62.1989 55.4545C64.8352 54 68.3201 53.2727 72.6534 53.2727C78.2898 53.2727 83.3201 54.697 87.7443 57.5455C92.1686 60.3939 95.6383 64.5 98.1534 69.8636C100.699 75.2273 101.972 81.6818 101.972 89.2273C101.972 96.7727 100.714 103.242 98.1989 108.636C95.6837 114 92.2292 118.136 87.8352 121.045C83.4413 123.924 78.4261 125.364 72.7898 125.364C68.5473 125.364 65.0777 124.652 62.3807 123.227C59.714 121.803 57.6231 120.136 56.108 118.227C54.5928 116.318 53.4261 114.621 52.608 113.136H51.7898V150.182H38.1989ZM51.517 89.0909C51.517 94 52.2292 98.303 53.6534 102C55.0777 105.697 57.1383 108.591 59.8352 110.682C62.5322 112.742 65.8352 113.773 69.7443 113.773C73.8049 113.773 77.1989 112.697 79.9261 110.545C82.6534 108.364 84.714 105.409 86.108 101.682C87.5322 97.9545 88.2443 93.7576 88.2443 89.0909C88.2443 84.4848 87.5474 80.3485 86.1534 76.6818C84.7898 73.0151 82.7292 70.1212 79.9716 68C77.2443 65.8788 73.8352 64.8182 69.7443 64.8182C65.8049 64.8182 62.4716 65.8333 59.7443 67.8636C57.0473 69.8939 55.0019 72.7273 53.608 76.3636C52.214 80 51.517 84.2424 51.517 89.0909ZM137.517 125.545C133.093 125.545 129.093 124.727 125.517 123.091C121.941 121.424 119.108 119.015 117.017 115.864C114.956 112.712 113.926 108.848 113.926 104.273C113.926 100.333 114.684 97.0909 116.199 94.5455C117.714 92 119.759 89.9848 122.335 88.5C124.911 87.0152 127.79 85.8939 130.972 85.1364C134.153 84.3788 137.396 83.803 140.699 83.4091C144.881 82.9242 148.275 82.5303 150.881 82.2273C153.487 81.8939 155.381 81.3636 156.562 80.6364C157.744 79.9091 158.335 78.7273 158.335 77.0909V76.7727C158.335 72.803 157.214 69.7273 154.972 67.5455C152.759 65.3636 149.456 64.2727 145.062 64.2727C140.487 64.2727 136.881 65.2879 134.244 67.3182C131.638 69.3182 129.835 71.5455 128.835 74L116.062 71.0909C117.578 66.8485 119.79 63.4242 122.699 60.8182C125.638 58.1818 129.017 56.2727 132.835 55.0909C136.653 53.8788 140.669 53.2727 144.881 53.2727C147.669 53.2727 150.623 53.6061 153.744 54.2727C156.896 54.9091 159.835 56.0909 162.562 57.8182C165.32 59.5455 167.578 62.0151 169.335 65.2273C171.093 68.4091 171.972 72.5455 171.972 77.6364V124H158.699V114.455H158.153C157.275 116.212 155.956 117.939 154.199 119.636C152.441 121.333 150.184 122.742 147.426 123.864C144.669 124.985 141.366 125.545 137.517 125.545ZM140.472 114.636C144.229 114.636 147.441 113.894 150.108 112.409C152.805 110.924 154.85 108.985 156.244 106.591C157.669 104.167 158.381 101.576 158.381 98.8182V89.8182C157.896 90.303 156.956 90.7576 155.562 91.1818C154.199 91.5758 152.638 91.9242 150.881 92.2273C149.123 92.5 147.411 92.7576 145.744 93C144.078 93.2121 142.684 93.3939 141.562 93.5455C138.926 93.8788 136.517 94.4394 134.335 95.2273C132.184 96.0152 130.456 97.1515 129.153 98.6364C127.881 100.091 127.244 102.03 127.244 104.455C127.244 107.818 128.487 110.364 130.972 112.091C133.456 113.788 136.623 114.636 140.472 114.636ZM190.074 124V54.1818H203.665V124H190.074ZM196.938 43.4091C194.574 43.4091 192.544 42.6212 190.847 41.0454C189.18 39.4394 188.347 37.5303 188.347 35.3182C188.347 33.0758 189.18 31.1667 190.847 29.5909C192.544 27.9848 194.574 27.1818 196.938 27.1818C199.301 27.1818 201.316 27.9848 202.983 29.5909C204.68 31.1667 205.528 33.0758 205.528 35.3182C205.528 37.5303 204.68 39.4394 202.983 41.0454C201.316 42.6212 199.301 43.4091 196.938 43.4091ZM235.54 82.5455V124H221.949V54.1818H234.994V65.5455H235.858C237.464 61.8485 239.979 58.8788 243.403 56.6364C246.858 54.3939 251.206 53.2727 256.449 53.2727C261.206 53.2727 265.373 54.2727 268.949 56.2727C272.525 58.2424 275.297 61.1818 277.267 65.0909C279.237 69 280.222 73.8333 280.222 79.5909V124H266.631V81.2273C266.631 76.1667 265.313 72.2121 262.676 69.3636C260.04 66.4848 256.419 65.0455 251.812 65.0455C248.661 65.0455 245.858 65.7273 243.403 67.0909C240.979 68.4545 239.055 70.4545 237.631 73.0909C236.237 75.697 235.54 78.8485 235.54 82.5455ZM331.04 54.1818V65.0909H292.903V54.1818H331.04ZM303.131 37.4545H316.722V103.5C316.722 106.136 317.116 108.121 317.903 109.455C318.691 110.758 319.706 111.652 320.949 112.136C322.222 112.591 323.6 112.818 325.085 112.818C326.176 112.818 327.131 112.742 327.949 112.591C328.767 112.439 329.403 112.318 329.858 112.227L332.312 123.455C331.525 123.758 330.403 124.061 328.949 124.364C327.494 124.697 325.676 124.879 323.494 124.909C319.919 124.97 316.585 124.333 313.494 123C310.403 121.667 307.903 119.606 305.994 116.818C304.085 114.03 303.131 110.53 303.131 106.318V37.4545Z" fill="white"/>
<g clip-path="url(#clip1_3_51)">
<path d="M48.7086 66.9721C47.7447 66.7533 46.7349 67.0234 46.0088 67.6942L42.2438 71.1725C40.4174 72.8599 37.449 71.7204 37.2207 69.2443L36.7502 64.139C36.6595 63.155 36.09 62.2788 35.2277 61.7963L30.7535 59.2929C28.5823 58.0781 28.7483 54.9004 31.0343 53.9184L35.7362 51.8987C36.6438 51.5088 37.3013 50.6971 37.4943 49.7284L38.4961 44.6999C38.982 42.2614 42.0532 41.4384 43.6932 43.3074L47.075 47.1612C47.7266 47.9037 48.7018 48.2779 49.6828 48.1617L54.7646 47.5599C57.2353 47.2673 58.968 49.9363 57.695 52.074L55.072 56.479C54.5664 57.3281 54.5114 58.3716 54.9248 59.2691L57.0669 63.9192C58.1079 66.1788 56.1043 68.6507 53.6782 68.1L48.7086 66.9721Z" fill="#E7EC00"/>
</g>
<defs>
<clipPath id="clip0_3_51">
<rect width="70" height="70" fill="white" transform="translate(308 65.6789) rotate(-12.9432)"/>
</clipPath>
<clipPath id="clip1_3_51">
<rect width="44" height="44" fill="white" transform="translate(22 33)"/>
</clipPath>
</defs>
</svg>
